# xmcd
#
# Track frame offsets:
#	150
#	7668
#	29881
#	47032
#	64717
#	80673
#	97429
#	114178
#	132982
#	146079
#	161470
#	178171
#
# Disc length: 2625 seconds
#
# Revision: 1
# Processed by: cddbd v1.5.1PL0 Copyright (c) Steve Scherf et al.
# Submitted via: EasyCDDAExtractor 6.2.0.3
#
DISCID=a60a3f0c
DTITLE=Various Artist - Truth Speaks
DYEAR=2004
DGENRE=Gospel
TTITLE0=A Song - 1 John 2:21
TTITLE1=Virtuous Woman - Proverbs 31:10-31
TTITLE2=Just Because - Psalm 68:3
TTITLE3=Taste and See - Psalm 34:8
TTITLE4=Let it Go - Ephesians  4:32
TTITLE5=This is God - Colossian 3:15
TTITLE6=Dead Sea Fruit - 1 Peter 5:8-9
TTITLE7=Go Back - Phillipians 3:12-14
TTITLE8=Him in You - Genesis 1:26-27
TTITLE9=I Believe - 1 John 5:14-15
TTITLE10=Come With Me - Romans 10:9
TTITLE11=Speak  - Jeremiah 1:5-9
EXTD=Songs written by Kim Desir - except "Let it Go" and "Come With Me" written b
EXTD=y Kim Desir and Regina Malloy.  Produced by Jeremy Green - except "A Song"
EXTD=produced by Kim Desir - "Let it Go" and "Come With Me" produced by Regina
EXTD=Malloy.  Vocal arrangements by Kim Desir except "Come With Me" backgroun
EXTD=d vocals arranged by Regina Malloy.  "Just Because" and "Go Back" backgroun
EXTD=d vocals arranged by Kamilah Haynes.  All Vovals by Kim Desir.\n\nExecuti
EXTD=ve Producers: Chris and Lisa Green\nMixed by Chris Green\nMastered by Sou
EXTD=ndLab at DiscMakers\nPhotography: Joy C. Bass\nDesign and Layout: Regina Ma
EXTD=lloy for Gineido Designs, LLC\n\nhttp://www.ttl-music.com\n
EXTT0=
EXTT1=
EXTT2=
EXTT3=
EXTT4=
EXTT5=
EXTT6=
EXTT7=
EXTT8=
EXTT9=
EXTT10=
EXTT11=
PLAYORDER=
